<svg width="1024" height="1024" viewBox="0 0 1024 1024" fill="none" xmlns="http://www.w3.org/2000/svg">
  <defs>
    <!-- Blue Gradient -->
    <linearGradient id="blueGrad" x1="109" y1="390" x2="299" y2="580" gradientUnits="userSpaceOnUse">
      <stop offset="0%" stop-color="#008DF2" />
      <stop offset="60%" stop-color="#0063D1" />
      <stop offset="100%" stop-color="#004A9E" />
    </linearGradient>

    <!-- Orange Gradient -->
    <linearGradient id="orangeGrad" x1="250" y1="410" x2="360" y2="560" gradientUnits="userSpaceOnUse">
      <stop offset="0%" stop-color="#FA7D1E" />
      <stop offset="50%" stop-color="#FA5A15" />
      <stop offset="100%" stop-color="#E83C0C" />
    </linearGradient>

    <!-- Mask for Blue C -->
    <mask id="blueMask" maskUnits="userSpaceOnUse">
      <!-- Make everything visible -->
      <rect x="0" y="0" width="1024" height="1024" fill="white" />
      <!-- Subtract the inner hole -->
      <circle cx="211" cy="485" r="40" fill="black" />
      <!-- Subtract the right cutout -->
      <circle cx="310" cy="485" r="80" fill="black" />
    </mask>

    <!-- Mask for Orange Play Button -->
    <mask id="orangeMask" maskUnits="userSpaceOnUse">
      <!-- Make everything visible -->
      <rect x="0" y="0" width="1024" height="1024" fill="white" />
      <!-- Subtract the indent circle -->
      <circle cx="219" cy="486" r="56" fill="black" />
    </mask>
  </defs>

  <!-- Blue C Shape (Outer Circle + Mask) -->
  <circle cx="211" cy="485" r="96" fill="url(#blueGrad)" mask="url(#blueMask)" />

  <!-- Orange Play Button (Rounded Triangle + Mask) -->
  <path fill="url(#orangeGrad)" mask="url(#orangeMask)" d="
    M 274,418
    L 361,478
    C 367,481 367,489 361,492
    L 278,552
    C 273,555 272,551 272,546
    L 269,424
    C 269,419 271,416 274,418 Z
  " />

  <!-- Text "Collabite" with fill-rule evenodd inherited -->
  <g transform="translate(370, 410)" fill="#1A1D20" fill-rule="evenodd">
    <path d="M 71.20,37.80 L 72.00,38.00 L 73.00,38.00 L 73.80,38.20 L 74.60,38.40 L 75.40,38.60 L 76.00,39.00 L 76.60,39.40 L 77.40,39.60 L 78.20,39.80 L 78.80,40.20 L 79.60,40.40 L 80.40,40.60 L 81.00,41.00 L 81.60,41.40 L 82.40,41.60 L 83.00,42.00 L 83.60,42.40 L 84.40,42.60 L 85.00,43.00 L 85.60,43.40 L 86.20,43.80 L 86.80,44.20 L 87.40,44.60 L 88.00,45.00 L 88.60,45.40 L 89.20,45.80 L 89.80,46.20 L 90.20,46.80 L 90.80,47.20 L 91.20,47.80 L 91.40,48.20 L 91.40,48.80 L 91.20,49.20 L 90.80,49.80 L 90.40,50.40 L 90.00,51.00 L 89.60,51.60 L 89.20,52.20 L 88.80,52.80 L 88.40,53.40 L 88.00,54.00 L 87.60,54.60 L 87.20,55.20 L 86.80,55.80 L 86.40,56.40 L 86.00,57.00 L 85.60,57.60 L 85.20,58.20 L 84.60,58.60 L 84.00,58.60 L 83.40,58.60 L 82.60,58.40 L 82.00,58.00 L 81.40,57.60 L 80.80,57.20 L 80.20,56.80 L 79.60,56.40 L 79.00,56.00 L 78.40,55.60 L 77.60,55.40 L 77.00,55.00 L 76.40,54.60 L 75.60,54.40 L 75.00,54.00 L 74.40,53.60 L 73.60,53.40 L 72.80,53.20 L 72.00,53.00 L 71.20,52.80 L 70.40,52.60 L 69.60,52.40 L 68.80,52.20 L 68.00,52.00 L 67.00,52.00 L 66.20,51.80 L 65.40,51.60 L 64.60,51.40 L 63.80,51.20 L 63.00,51.00 L 62.00,51.00 L 61.00,51.00 L 60.00,51.00 L 59.20,51.20 L 58.40,51.40 L 57.60,51.60 L 56.80,51.80 L 56.00,52.00 L 55.00,52.00 L 54.20,52.20 L 53.40,52.40 L 52.60,52.60 L 51.80,52.80 L 51.20,53.20 L 50.40,53.40 L 49.60,53.60 L 48.80,53.80 L 48.20,54.20 L 47.40,54.40 L 46.60,54.60 L 46.00,55.00 L 45.40,55.40 L 44.80,55.80 L 44.20,56.20 L 43.80,56.80 L 43.20,57.20 L 42.60,57.60 L 42.00,58.00 L 41.40,58.40 L 40.80,58.80 L 40.20,59.20 L 39.80,59.80 L 39.20,60.20 L 38.80,60.80 L 38.40,61.40 L 38.00,62.00 L 37.60,62.60 L 37.20,63.20 L 36.80,63.80 L 36.40,64.40 L 36.00,65.00 L 35.60,65.60 L 35.40,66.40 L 35.00,67.00 L 34.60,67.60 L 34.40,68.40 L 34.00,69.00 L 33.60,69.60 L 33.40,70.40 L 33.20,71.20 L 32.80,71.80 L 32.60,72.60 L 32.40,73.40 L 32.20,74.20 L 32.00,75.00 L 31.80,75.80 L 31.60,76.60 L 31.40,77.40 L 31.20,78.20 L 31.00,79.00 L 31.00,80.00 L 31.00,81.00 L 31.00,82.00 L 31.00,83.00 L 31.00,84.00 L 31.00,85.00 L 31.00,86.00 L 31.20,86.80 L 31.40,87.60 L 31.60,88.40 L 31.80,89.20 L 32.00,90.00 L 32.20,90.80 L 32.40,91.60 L 32.60,92.40 L 32.80,93.20 L 33.00,94.00 L 33.20,94.80 L 33.40,95.60 L 33.60,96.40 L 34.00,97.00 L 34.40,97.60 L 34.60,98.40 L 35.00,99.00 L 35.40,99.60 L 35.60,100.40 L 36.00,101.00 L 36.40,101.60 L 36.80,102.20 L 37.20,102.80 L 37.80,103.20 L 38.20,103.80 L 38.80,104.20 L 39.20,104.80 L 39.80,105.20 L 40.20,105.80 L 40.80,106.20 L 41.20,106.80 L 41.80,107.20 L 42.40,107.60 L 43.00,108.00 L 43.60,108.40 L 44.20,108.80 L 44.80,109.20 L 45.40,109.60 L 46.00,110.00 L 46.60,110.40 L 47.40,110.60 L 48.20,110.80 L 48.80,111.20 L 49.60,111.40 L 50.40,111.60 L 51.20,111.80 L 51.80,112.20 L 52.60,112.40 L 53.40,112.60 L 54.20,112.80 L 55.00,113.00 L 56.00,113.00 L 56.80,113.20 L 57.60,113.40 L 58.40,113.60 L 59.20,113.80 L 60.00,114.00 L 61.00,114.00 L 62.00,114.00 L 63.00,114.00 L 64.00,114.00 L 64.80,113.80 L 65.60,113.60 L 66.40,113.40 L 67.20,113.20 L 68.00,113.00 L 69.00,113.00 L 69.80,112.80 L 70.60,112.60 L 71.40,112.40 L 72.20,112.20 L 72.80,111.80 L 73.60,111.60 L 74.40,111.40 L 75.20,111.20 L 75.80,110.80 L 76.60,110.60 L 77.40,110.40 L 78.00,110.00 L 78.60,109.60 L 79.40,109.40 L 80.00,109.00 L 80.60,108.60 L 81.20,108.20 L 81.80,107.80 L 82.40,107.40 L 83.00,107.00 L 83.60,106.60 L 84.20,106.20 L 84.80,105.80 L 85.20,105.60 L 85.80,105.60 L 86.20,105.80 L 86.80,106.20 L 87.20,106.80 L 87.80,107.20 L 88.20,107.80 L 88.80,108.20 L 89.20,108.80 L 89.60,109.40 L 90.00,110.00 L 90.40,110.60 L 90.80,111.20 L 91.20,111.80 L 91.80,112.20 L 92.20,112.80 L 92.60,113.40 L 93.00,114.00 L 93.40,114.60 L 93.60,115.40 L 93.60,116.00 L 93.60,116.60 L 93.20,117.20 L 92.60,117.60 L 92.00,118.00 L 91.40,118.40 L 90.80,118.80 L 90.20,119.20 L 89.80,119.80 L 89.20,120.20 L 88.60,120.60 L 88.00,121.00 L 87.40,121.40 L 86.80,121.80 L 86.20,122.20 L 85.60,122.60 L 85.00,123.00 L 84.40,123.40 L 83.60,123.60 L 83.00,124.00 L 82.40,124.40 L 81.60,124.60 L 80.80,124.80 L 80.20,125.20 L 79.40,125.40 L 78.60,125.60 L 77.80,125.80 L 77.20,126.20 L 76.40,126.40 L 75.60,126.60 L 74.80,126.80 L 74.00,127.00 L 73.20,127.20 L 72.40,127.40 L 71.60,127.60 L 70.80,127.80 L 70.00,128.00 L 69.00,128.00 L 68.00,128.00 L 67.00,128.00 L 66.00,128.00 L 65.00,128.00 L 64.00,128.00 L 63.00,128.00 L 62.00,128.00 L 61.00,128.00 L 60.00,128.00 L 59.00,128.00 L 58.00,128.00 L 57.00,128.00 L 56.00,128.00 L 55.00,128.00 L 54.00,128.00 L 53.00,128.00 L 52.20,127.80 L 51.40,127.60 L 50.60,127.40 L 49.80,127.20 L 49.00,127.00 L 48.20,126.80 L 47.40,126.60 L 46.60,126.40 L 45.80,126.20 L 45.20,125.80 L 44.40,125.60 L 43.60,125.40 L 42.80,125.20 L 42.20,124.80 L 41.40,124.60 L 40.60,124.40 L 40.00,124.00 L 39.40,123.60 L 38.60,123.40 L 38.00,123.00 L 37.40,122.60 L 36.60,122.40 L 36.00,122.00 L 35.40,121.60 L 34.80,121.20 L 34.20,120.80 L 33.60,120.40 L 33.00,120.00 L 32.40,119.60 L 31.80,119.20 L 31.20,118.80 L 30.80,118.20 L 30.20,117.80 L 29.60,117.40 L 29.00,117.00 L 28.60,116.40 L 28.00,116.00 L 27.60,115.40 L 27.20,114.80 L 26.80,114.20 L 26.20,113.80 L 25.80,113.20 L 25.20,112.80 L 24.80,112.20 L 24.20,111.80 L 23.80,111.20 L 23.20,110.80 L 22.80,110.20 L 22.40,109.60 L 22.00,109.00 L 21.60,108.40 L 21.40,107.60 L 21.00,107.00 L 20.60,106.40 L 20.20,105.80 L 19.80,105.20 L 19.40,104.60 L 19.00,104.00 L 18.60,103.40 L 18.40,102.60 L 18.00,102.00 L 17.60,101.40 L 17.40,100.60 L 17.20,99.80 L 16.80,99.20 L 16.60,98.40 L 16.40,97.60 L 16.20,96.80 L 16.00,96.00 L 15.80,95.20 L 15.60,94.40 L 15.40,93.60 L 15.20,92.80 L 15.00,92.00 L 15.00,91.00 L 15.00,90.00 L 14.80,89.20 L 14.60,88.40 L 14.40,87.60 L 14.20,86.80 L 14.00,86.00 L 14.00,85.00 L 14.00,84.00 L 14.00,83.00 L 14.00,82.00 L 14.00,81.00 L 14.00,80.00 L 14.00,79.00 L 14.20,78.20 L 14.40,77.40 L 14.60,76.60 L 14.80,75.80 L 15.00,75.00 L 15.00,74.00 L 15.00,73.00 L 15.20,72.20 L 15.40,71.40 L 15.60,70.60 L 15.80,69.80 L 16.20,69.20 L 16.40,68.40 L 16.60,67.60 L 16.80,66.80 L 17.20,66.20 L 17.40,65.40 L 17.60,64.60 L 18.00,64.00 L 18.40,63.40 L 18.60,62.60 L 19.00,62.00 L 19.40,61.40 L 19.60,60.60 L 20.00,60.00 L 20.40,59.40 L 20.60,58.60 L 21.00,58.00 L 21.40,57.40 L 21.80,56.80 L 22.20,56.20 L 22.60,55.60 L 23.00,55.00 L 23.40,54.40 L 23.80,53.80 L 24.20,53.20 L 24.80,52.80 L 25.20,52.20 L 25.80,51.80 L 26.20,51.20 L 26.80,50.80 L 27.20,50.20 L 27.80,49.80 L 28.20,49.20 L 28.80,48.80 L 29.20,48.20 L 29.80,47.80 L 30.20,47.20 L 30.80,46.80 L 31.40,46.40 L 32.00,46.00 L 32.60,45.60 L 33.20,45.20 L 33.80,44.80 L 34.40,44.40 L 35.00,44.00 L 35.60,43.60 L 36.20,43.20 L 36.80,42.80 L 37.40,42.40 L 38.20,42.20 L 38.80,41.80 L 39.60,41.60 L 40.40,41.40 L 41.00,41.00 L 41.60,40.60 L 42.40,40.40 L 43.00,40.00 L 43.60,39.60 L 44.40,39.40 L 45.20,39.20 L 46.00,39.00 L 46.80,38.80 L 47.60,38.60 L 48.40,38.40 L 49.20,38.20 L 50.00,38.00 L 50.80,37.80 L 51.60,37.60 L 52.40,37.40 L 53.20,37.20 L 54.00,37.00 L 55.00,37.00 L 56.00,37.00 L 57.00,37.00 L 58.00,37.00 L 59.00,37.00 L 60.00,37.00 L 61.00,37.00 L 62.00,37.00 L 63.00,37.00 L 64.00,37.00 L 65.00,37.00 L 66.00,37.00 L 67.00,37.00 L 68.00,37.00 L 68.80,37.20 L 69.60,37.40 L 70.40,37.60 Z" />
    <path d="M 158.20,113.20 L 158.60,112.60 L 159.00,112.00 L 159.40,111.40 L 159.60,110.60 L 160.00,110.00 L 160.40,109.40 L 160.60,108.60 L 160.80,107.80 L 161.20,107.20 L 161.40,106.40 L 161.60,105.60 L 161.80,104.80 L 162.00,104.00 L 162.00,103.00 L 162.20,102.20 L 162.40,101.40 L 162.60,100.60 L 162.80,99.80 L 163.00,99.00 L 163.00,98.00 L 163.00,97.00 L 162.80,96.20 L 162.60,95.40 L 162.40,94.60 L 162.20,93.80 L 162.00,93.00 L 162.00,92.00 L 161.80,91.20 L 161.60,90.40 L 161.40,89.60 L 161.20,88.80 L 161.00,88.00 L 160.80,87.20 L 160.60,86.40 L 160.20,85.80 L 159.80,85.20 L 159.40,84.60 L 159.00,84.00 L 158.60,83.40 L 158.40,82.60 L 158.00,82.00 L 157.60,81.40 L 157.20,80.80 L 156.80,80.20 L 156.40,79.60 L 156.00,79.00 L 155.60,78.40 L 155.20,77.80 L 154.80,77.20 L 154.20,76.80 L 153.80,76.20 L 153.20,75.80 L 152.60,75.40 L 152.00,75.00 L 151.40,74.60 L 150.80,74.20 L 150.20,73.80 L 149.80,73.20 L 149.20,72.80 L 148.60,72.40 L 148.00,72.00 L 147.40,71.60 L 146.60,71.40 L 146.00,71.00 L 145.40,70.60 L 144.60,70.40 L 144.00,70.00 L 143.40,69.60 L 142.60,69.40 L 141.80,69.20 L 141.00,69.00 L 140.20,68.80 L 139.40,68.60 L 138.60,68.40 L 137.80,68.20 L 137.00,68.00 L 136.00,68.00 L 135.00,68.00 L 134.20,67.80 L 133.40,67.60 L 132.60,67.40 L 131.80,67.20 L 131.00,67.00 L 130.00,67.00 L 129.20,67.20 L 128.40,67.40 L 127.60,67.60 L 126.80,67.80 L 126.00,68.00 L 125.00,68.00 L 124.00,68.00 L 123.20,68.20 L 122.40,68.40 L 121.60,68.60 L 120.80,68.80 L 120.00,69.00 L 119.20,69.20 L 118.40,69.40 L 117.60,69.60 L 117.00,70.00 L 116.40,70.40 L 115.60,70.60 L 115.00,71.00 L 114.40,71.40 L 113.60,71.60 L 113.00,72.00 L 112.40,72.40 L 111.80,72.80 L 111.20,73.20 L 110.80,73.80 L 110.20,74.20 L 109.60,74.60 L 109.00,75.00 L 108.40,75.40 L 107.80,75.80 L 107.20,76.20 L 106.80,76.80 L 106.20,77.20 L 105.80,77.80 L 105.20,78.20 L 104.80,78.80 L 104.40,79.40 L 104.00,80.00 L 103.60,80.60 L 103.40,81.40 L 103.00,82.00 L 102.60,82.60 L 102.20,83.20 L 101.80,83.80 L 101.40,84.40 L 101.00,85.00 L 100.60,85.60 L 100.40,86.40 L 100.20,87.20 L 100.00,88.00 L 99.80,88.80 L 99.60,89.60 L 99.40,90.40 L 99.20,91.20 L 99.00,92.00 L 99.00,93.00 L 98.80,93.80 L 98.60,94.60 L 98.40,95.40 L 98.20,96.20 L 98.00,97.00 L 98.00,98.00 L 98.00,99.00 L 98.20,99.80 L 98.40,100.60 L 98.60,101.40 L 98.80,102.20 L 99.00,103.00 L 99.00,104.00 L 99.20,104.80 L 99.40,105.60 L 99.60,106.40 L 99.80,107.20 L 100.20,107.80 L 100.40,108.60 L 100.60,109.40 L 101.00,110.00 L 101.40,110.60 L 101.60,111.40 L 102.00,112.00 L 102.40,112.60 L 102.60,113.40 L 103.00,114.00 L 103.40,114.60 L 103.80,115.20 L 104.20,115.80 L 104.60,116.40 L 105.00,117.00 L 105.40,117.60 L 105.80,118.20 L 106.20,118.80 L 106.80,119.20 L 107.40,119.60 L 108.00,120.00 L 108.60,120.40 L 109.20,120.80 L 109.80,121.20 L 110.20,121.80 L 110.80,122.20 L 111.40,122.60 L 112.00,123.00 L 112.60,123.40 L 113.40,123.60 L 114.00,124.00 L 114.60,124.40 L 115.40,124.60 L 116.00,125.00 L 116.60,125.40 L 117.40,125.60 L 118.20,125.80 L 118.80,126.20 L 119.60,126.40 L 120.40,126.60 L 121.20,126.80 L 122.00,127.00 L 122.80,127.20 L 123.60,127.40 L 124.40,127.60 L 125.20,127.80 L 126.00,128.00 L 127.00,128.00 L 128.00,128.00 L 129.00,128.00 L 130.00,128.00 L 131.00,128.00 L 132.00,128.00 L 133.00,128.00 L 134.00,128.00 L 135.00,128.00 L 135.80,127.80 L 136.60,127.60 L 137.40,127.40 L 138.20,127.20 L 139.00,127.00 L 139.80,126.80 L 140.60,126.60 L 141.40,126.40 L 142.20,126.20 L 142.80,125.80 L 143.60,125.60 L 144.40,125.40 L 145.00,125.00 L 145.60,124.60 L 146.40,124.40 L 147.00,124.00 L 147.60,123.60 L 148.40,123.40 L 149.00,123.00 L 149.60,122.60 L 150.20,122.20 L 150.80,121.80 L 151.20,121.20 L 151.80,120.80 L 152.20,120.20 L 152.80,119.80 L 153.20,119.20 L 153.80,118.80 L 154.20,118.20 L 154.80,117.80 L 155.20,117.20 L 155.80,116.80 L 156.20,116.20 L 156.60,115.60 L 157.00,115.00 L 157.40,114.40 L 157.80,113.80 Z M 115.80,107.20 L 115.40,106.60 L 115.20,105.80 L 114.80,105.20 L 114.60,104.40 L 114.40,103.60 L 114.20,102.80 L 114.00,102.00 L 114.00,101.00 L 114.00,100.00 L 114.00,99.00 L 114.00,98.00 L 114.00,97.00 L 114.00,96.00 L 114.00,95.00 L 114.00,94.00 L 114.20,93.20 L 114.40,92.40 L 114.60,91.60 L 114.80,90.80 L 115.20,90.20 L 115.40,89.40 L 115.60,88.60 L 116.00,88.00 L 116.40,87.40 L 116.80,86.80 L 117.20,86.20 L 117.80,85.80 L 118.20,85.20 L 118.80,84.80 L 119.20,84.20 L 119.80,83.80 L 120.20,83.20 L 120.80,82.80 L 121.40,82.40 L 122.00,82.00 L 122.60,81.60 L 123.40,81.40 L 124.00,81.00 L 124.60,80.60 L 125.40,80.40 L 126.20,80.20 L 127.00,80.00 L 128.00,80.00 L 129.00,80.00 L 130.00,80.00 L 131.00,80.00 L 132.00,80.00 L 133.00,80.00 L 133.80,80.20 L 134.60,80.40 L 135.40,80.60 L 136.20,80.80 L 136.80,81.20 L 137.60,81.40 L 138.40,81.60 L 139.00,82.00 L 139.60,82.40 L 140.20,82.80 L 140.80,83.20 L 141.20,83.80 L 141.80,84.20 L 142.20,84.80 L 142.80,85.20 L 143.20,85.80 L 143.80,86.20 L 144.20,86.80 L 144.60,87.40 L 145.00,88.00 L 145.40,88.60 L 145.60,89.40 L 145.80,90.20 L 146.20,90.80 L 146.40,91.60 L 146.60,92.40 L 146.80,93.20 L 147.00,94.00 L 147.00,95.00 L 147.00,96.00 L 147.00,97.00 L 147.00,98.00 L 147.00,99.00 L 147.00,100.00 L 147.00,101.00 L 147.00,102.00 L 146.80,102.80 L 146.60,103.60 L 146.40,104.40 L 146.20,105.20 L 145.80,105.80 L 145.60,106.60 L 145.40,107.40 L 145.00,108.00 L 144.60,108.60 L 144.20,109.20 L 143.80,109.80 L 143.20,110.20 L 142.80,110.80 L 142.20,111.20 L 141.80,111.80 L 141.20,112.20 L 140.60,112.60 L 140.00,113.00 L 139.40,113.40 L 138.80,113.80 L 138.20,114.20 L 137.60,114.60 L 136.80,114.80 L 136.00,115.00 L 135.20,115.20 L 134.40,115.40 L 133.60,115.60 L 132.80,115.80 L 132.00,116.00 L 131.00,116.00 L 130.00,116.00 L 129.00,116.00 L 128.20,115.80 L 127.40,115.60 L 126.60,115.40 L 125.80,115.20 L 125.00,115.00 L 124.20,114.80 L 123.40,114.60 L 122.60,114.40 L 122.00,114.00 L 121.40,113.60 L 120.80,113.20 L 120.20,112.80 L 119.80,112.20 L 119.20,111.80 L 118.80,111.20 L 118.20,110.80 L 117.80,110.20 L 117.40,109.60 L 117.00,109.00 L 116.60,108.40 L 116.20,107.80 Z" />
    <path d="M 173.00,40.00 L 173.20,39.20 L 173.60,38.60 L 174.20,38.20 L 175.00,38.00 L 176.00,38.00 L 177.00,38.00 L 178.00,38.00 L 179.00,38.00 L 180.00,38.00 L 181.00,38.00 L 182.00,38.00 L 183.00,38.00 L 184.00,38.00 L 185.00,38.00 L 186.00,38.00 L 186.80,38.20 L 187.60,38.40 L 188.20,38.80 L 188.60,39.40 L 188.80,40.20 L 189.00,41.00 L 189.00,42.00 L 189.00,43.00 L 189.00,44.00 L 189.00,45.00 L 189.00,46.00 L 189.00,47.00 L 189.00,48.00 L 189.00,49.00 L 189.00,50.00 L 189.00,51.00 L 189.00,52.00 L 189.00,53.00 L 189.00,54.00 L 189.00,55.00 L 189.00,56.00 L 189.00,57.00 L 189.00,58.00 L 189.00,59.00 L 189.00,60.00 L 189.00,61.00 L 189.00,62.00 L 189.00,63.00 L 189.00,64.00 L 189.00,65.00 L 189.00,66.00 L 189.00,67.00 L 189.00,68.00 L 189.00,69.00 L 189.00,70.00 L 189.00,71.00 L 189.00,72.00 L 189.00,73.00 L 189.00,74.00 L 189.00,75.00 L 189.00,76.00 L 189.00,77.00 L 189.00,78.00 L 189.00,79.00 L 189.00,80.00 L 189.00,81.00 L 189.00,82.00 L 189.00,83.00 L 189.00,84.00 L 189.00,85.00 L 189.00,86.00 L 189.00,87.00 L 189.00,88.00 L 189.00,89.00 L 189.00,90.00 L 189.00,91.00 L 189.00,92.00 L 189.00,93.00 L 189.00,94.00 L 189.00,95.00 L 189.00,96.00 L 189.00,97.00 L 189.00,98.00 L 189.00,99.00 L 189.00,100.00 L 189.00,101.00 L 189.00,102.00 L 189.00,103.00 L 189.00,104.00 L 189.00,105.00 L 189.00,106.00 L 189.00,107.00 L 189.00,108.00 L 189.00,109.00 L 189.00,110.00 L 189.00,111.00 L 189.00,112.00 L 189.00,113.00 L 189.00,114.00 L 189.00,115.00 L 189.00,116.00 L 189.00,117.00 L 189.00,118.00 L 189.00,119.00 L 189.00,120.00 L 189.00,121.00 L 189.00,122.00 L 189.00,123.00 L 189.00,124.00 L 188.80,124.80 L 188.60,125.60 L 188.20,126.20 L 187.60,126.60 L 186.80,126.80 L 186.00,127.00 L 185.00,127.00 L 184.00,127.00 L 183.00,127.00 L 182.00,127.00 L 181.00,127.00 L 180.00,127.00 L 179.00,127.00 L 178.00,127.00 L 177.00,127.00 L 176.00,127.00 L 175.20,126.80 L 174.40,126.60 L 173.80,126.20 L 173.40,125.60 L 173.20,124.80 L 173.00,124.00 L 173.00,123.00 L 173.00,122.00 L 173.00,121.00 L 173.00,120.00 L 173.00,119.00 L 173.00,118.00 L 173.00,117.00 L 173.00,116.00 L 173.00,115.00 L 173.00,114.00 L 173.00,113.00 L 173.00,112.00 L 173.00,111.00 L 173.00,110.00 L 173.00,109.00 L 173.00,108.00 L 173.00,107.00 L 173.00,106.00 L 173.00,105.00 L 173.00,104.00 L 173.00,103.00 L 173.00,102.00 L 173.00,101.00 L 173.00,100.00 L 173.00,99.00 L 173.00,98.00 L 173.00,97.00 L 173.00,96.00 L 173.00,95.00 L 173.00,94.00 L 173.00,93.00 L 173.00,92.00 L 173.00,91.00 L 173.00,90.00 L 173.00,89.00 L 173.00,88.00 L 173.00,87.00 L 173.00,86.00 L 173.00,85.00 L 173.00,84.00 L 173.00,83.00 L 173.00,82.00 L 173.00,81.00 L 173.00,80.00 L 173.00,79.00 L 173.00,78.00 L 173.00,77.00 L 173.00,76.00 L 173.00,75.00 L 173.00,74.00 L 173.00,73.00 L 173.00,72.00 L 173.00,71.00 L 173.00,70.00 L 173.00,69.00 L 173.00,68.00 L 173.00,67.00 L 173.00,66.00 L 173.00,65.00 L 173.00,64.00 L 173.00,63.00 L 173.00,62.00 L 173.00,61.00 L 173.00,60.00 L 173.00,59.00 L 173.00,58.00 L 173.00,57.00 L 173.00,56.00 L 173.00,55.00 L 173.00,54.00 L 173.00,53.00 L 173.00,52.00 L 173.00,51.00 L 173.00,50.00 L 173.00,49.00 L 173.00,48.00 L 173.00,47.00 L 173.00,46.00 L 173.00,45.00 L 173.00,44.00 L 173.00,43.00 L 173.00,42.00 L 173.00,41.00 Z" />
    <path d="M 203.00,81.00 L 203.00,80.00 L 203.00,79.00 L 203.00,78.00 L 203.00,77.00 L 203.00,76.00 L 203.00,75.00 L 203.00,74.00 L 203.00,73.00 L 203.00,72.00 L 203.00,71.00 L 203.00,70.00 L 203.00,69.00 L 203.00,68.00 L 203.00,67.00 L 203.00,66.00 L 203.00,65.00 L 203.00,64.00 L 203.00,63.00 L 203.00,62.00 L 203.00,61.00 L 203.00,60.00 L 203.00,59.00 L 203.00,58.00 L 203.00,57.00 L 203.00,56.00 L 203.00,55.00 L 203.00,54.00 L 203.00,53.00 L 203.00,52.00 L 203.00,51.00 L 203.00,50.00 L 203.00,49.00 L 203.00,48.00 L 203.00,47.00 L 203.00,46.00 L 203.00,45.00 L 203.00,44.00 L 203.00,43.00 L 203.00,42.00 L 203.00,41.00 L 203.00,40.00 L 203.20,39.20 L 203.60,38.60 L 204.20,38.20 L 205.00,38.00 L 206.00,38.00 L 207.00,38.00 L 208.00,38.00 L 209.00,38.00 L 210.00,38.00 L 211.00,38.00 L 212.00,38.00 L 213.00,38.00 L 214.00,38.00 L 215.00,38.00 L 216.00,38.00 L 216.80,38.20 L 217.40,38.60 L 217.80,39.20 L 218.00,40.00 L 218.00,41.00 L 218.00,42.00 L 218.00,43.00 L 218.00,44.00 L 218.00,45.00 L 218.00,46.00 L 218.00,47.00 L 218.00,48.00 L 218.00,49.00 L 218.00,50.00 L 218.00,51.00 L 218.00,52.00 L 218.00,53.00 L 218.00,54.00 L 218.00,55.00 L 218.00,56.00 L 218.00,57.00 L 218.00,58.00 L 218.00,59.00 L 218.00,60.00 L 218.00,61.00 L 218.00,62.00 L 218.00,63.00 L 218.00,64.00 L 218.00,65.00 L 218.00,66.00 L 218.00,67.00 L 218.00,68.00 L 218.00,69.00 L 218.00,70.00 L 218.00,71.00 L 218.00,72.00 L 218.00,73.00 L 218.00,74.00 L 218.00,75.00 L 218.00,76.00 L 218.00,77.00 L 218.00,78.00 L 218.00,79.00 L 218.00,80.00 L 218.00,81.00 L 218.00,82.00 L 218.00,83.00 L 218.00,84.00 L 218.00,85.00 L 218.00,86.00 L 218.00,87.00 L 218.00,88.00 L 218.00,89.00 L 218.00,90.00 L 218.00,91.00 L 218.00,92.00 L 218.00,93.00 L 218.00,94.00 L 218.00,95.00 L 218.00,96.00 L 218.00,97.00 L 218.00,98.00 L 218.00,99.00 L 218.00,100.00 L 218.00,101.00 L 218.00,102.00 L 218.00,103.00 L 218.00,104.00 L 218.00,105.00 L 218.00,106.00 L 218.00,107.00 L 218.00,108.00 L 218.00,109.00 L 218.00,110.00 L 218.00,111.00 L 218.00,112.00 L 218.00,113.00 L 218.00,114.00 L 218.00,115.00 L 218.00,116.00 L 218.00,117.00 L 218.00,118.00 L 218.00,119.00 L 218.00,120.00 L 218.00,121.00 L 218.00,122.00 L 218.00,123.00 L 218.00,124.00 L 218.00,125.00 L 217.80,125.80 L 217.40,126.40 L 216.80,126.80 L 216.00,127.00 L 215.00,127.00 L 214.00,127.00 L 213.00,127.00 L 212.00,127.00 L 211.00,127.00 L 210.00,127.00 L 209.00,127.00 L 208.00,127.00 L 207.00,127.00 L 206.00,127.00 L 205.00,127.00 L 204.20,126.80 L 203.60,126.40 L 203.20,125.80 L 203.00,125.00 L 203.00,124.00 L 203.00,123.00 L 203.00,122.00 L 203.00,121.00 L 203.00,120.00 L 203.00,119.00 L 203.00,118.00 L 203.00,117.00 L 203.00,116.00 L 203.00,115.00 L 203.00,114.00 L 203.00,113.00 L 203.00,112.00 L 203.00,111.00 L 203.00,110.00 L 203.00,109.00 L 203.00,108.00 L 203.00,107.00 L 203.00,106.00 L 203.00,105.00 L 203.00,104.00 L 203.00,103.00 L 203.00,102.00 L 203.00,101.00 L 203.00,100.00 L 203.00,99.00 L 203.00,98.00 L 203.00,97.00 L 203.00,96.00 L 203.00,95.00 L 203.00,94.00 L 203.00,93.00 L 203.00,92.00 L 203.00,91.00 L 203.00,90.00 L 203.00,89.00 L 203.00,88.00 L 203.00,87.00 L 203.00,86.00 L 203.00,85.00 L 203.00,84.00 L 203.00,83.00 L 203.00,82.00 Z" />
    <path d="M 250.40,68.40 L 249.60,68.60 L 248.80,68.80 L 248.20,69.20 L 247.40,69.40 L 246.60,69.60 L 246.00,70.00 L 245.40,70.40 L 244.60,70.60 L 244.00,71.00 L 243.40,71.40 L 242.80,71.80 L 242.20,72.20 L 241.60,72.60 L 241.00,73.00 L 240.40,73.40 L 239.80,73.80 L 239.20,74.20 L 238.80,74.80 L 238.20,75.20 L 237.80,75.80 L 237.20,76.20 L 236.80,76.80 L 236.20,77.20 L 235.80,77.80 L 235.20,78.20 L 234.80,78.80 L 234.40,79.40 L 234.00,80.00 L 233.60,80.60 L 233.20,81.20 L 232.80,81.80 L 232.40,82.40 L 232.00,83.00 L 231.60,83.60 L 231.40,84.40 L 231.20,85.20 L 230.80,85.80 L 230.60,86.60 L 230.40,87.40 L 230.20,88.20 L 230.00,89.00 L 229.80,89.80 L 229.60,90.60 L 229.40,91.40 L 229.20,92.20 L 229.00,93.00 L 229.00,94.00 L 229.00,95.00 L 229.00,96.00 L 229.00,97.00 L 229.00,98.00 L 229.00,99.00 L 229.00,100.00 L 229.00,101.00 L 229.00,102.00 L 229.00,103.00 L 229.20,103.80 L 229.40,104.60 L 229.60,105.40 L 229.80,106.20 L 230.00,107.00 L 230.20,107.80 L 230.40,108.60 L 230.60,109.40 L 231.00,110.00 L 231.40,110.60 L 231.60,111.40 L 232.00,112.00 L 232.40,112.60 L 232.60,113.40 L 233.00,114.00 L 233.40,114.60 L 233.60,115.40 L 234.00,116.00 L 234.40,116.60 L 234.80,117.20 L 235.20,117.80 L 235.80,118.20 L 236.20,118.80 L 236.80,119.20 L 237.20,119.80 L 237.80,120.20 L 238.20,120.80 L 238.80,121.20 L 239.40,121.60 L 240.00,122.00 L 240.60,122.40 L 241.20,122.80 L 241.80,123.20 L 242.40,123.60 L 243.00,124.00 L 243.60,124.40 L 244.40,124.60 L 245.00,125.00 L 245.60,125.40 L 246.40,125.60 L 247.00,126.00 L 247.60,126.40 L 248.40,126.60 L 249.20,126.80 L 250.00,127.00 L 250.80,127.20 L 251.60,127.40 L 252.40,127.60 L 253.20,127.80 L 254.00,128.00 L 255.00,128.00 L 256.00,128.00 L 257.00,128.00 L 258.00,128.00 L 259.00,128.00 L 260.00,128.00 L 261.00,128.00 L 261.80,127.80 L 262.60,127.60 L 263.40,127.40 L 264.20,127.20 L 264.80,126.80 L 265.60,126.60 L 266.40,126.40 L 267.20,126.20 L 267.80,125.80 L 268.60,125.60 L 269.20,125.20 L 269.80,124.80 L 270.40,124.40 L 271.00,124.00 L 271.60,123.60 L 272.20,123.20 L 272.80,122.80 L 273.20,122.20 L 273.80,121.80 L 274.20,121.20 L 274.80,120.80 L 275.40,120.40 L 276.20,120.20 L 276.80,120.20 L 277.40,120.60 L 277.80,121.20 L 278.00,122.00 L 278.00,123.00 L 278.00,124.00 L 278.00,125.00 L 278.20,125.80 L 278.60,126.40 L 279.20,126.80 L 280.00,127.00 L 281.00,127.00 L 282.00,127.00 L 283.00,127.00 L 284.00,127.00 L 285.00,127.00 L 286.00,127.00 L 287.00,127.00 L 288.00,127.00 L 289.00,127.00 L 290.00,127.00 L 291.00,127.00 L 291.80,126.80 L 292.40,126.40 L 292.80,125.80 L 293.00,125.00 L 293.00,124.00 L 293.00,123.00 L 293.00,122.00 L 293.00,121.00 L 293.00,120.00 L 293.00,119.00 L 293.00,118.00 L 293.00,117.00 L 293.00,116.00 L 293.00,115.00 L 293.00,114.00 L 293.00,113.00 L 293.00,112.00 L 293.00,111.00 L 293.00,110.00 L 293.00,109.00 L 293.00,108.00 L 293.00,107.00 L 293.00,106.00 L 293.00,105.00 L 293.00,104.00 L 293.00,103.00 L 293.00,102.00 L 293.00,101.00 L 293.00,100.00 L 293.00,99.00 L 293.00,98.00 L 293.00,97.00 L 293.00,96.00 L 293.00,95.00 L 293.00,94.00 L 293.00,93.00 L 293.00,92.00 L 293.00,91.00 L 293.00,90.00 L 293.00,89.00 L 293.00,88.00 L 293.00,87.00 L 293.00,86.00 L 293.00,85.00 L 293.00,84.00 L 293.00,83.00 L 293.00,82.00 L 293.00,81.00 L 293.00,80.00 L 293.00,79.00 L 293.00,78.00 L 293.00,77.00 L 293.00,76.00 L 293.00,75.00 L 293.00,74.00 L 293.00,73.00 L 293.00,72.00 L 293.00,71.00 L 292.80,70.20 L 292.40,69.60 L 291.80,69.20 L 291.00,69.00 L 290.00,69.00 L 289.00,69.00 L 288.00,69.00 L 287.00,69.00 L 286.00,69.00 L 285.00,69.00 L 284.00,69.00 L 283.00,69.00 L 282.00,69.00 L 281.00,69.00 L 280.00,69.00 L 279.20,69.20 L 278.60,69.60 L 278.20,70.20 L 277.80,70.80 L 277.80,71.60 L 277.80,72.40 L 277.80,73.20 L 277.60,73.80 L 277.40,74.40 L 276.80,74.80 L 276.20,74.80 L 275.40,74.60 L 274.80,74.20 L 274.20,73.80 L 273.80,73.20 L 273.20,72.80 L 272.80,72.20 L 272.20,71.80 L 271.60,71.40 L 271.00,71.00 L 270.40,70.60 L 269.60,70.40 L 269.00,70.00 L 268.40,69.60 L 267.60,69.40 L 266.80,69.20 L 266.20,68.80 L 265.40,68.60 L 264.60,68.40 L 263.80,68.20 L 263.00,68.00 L 262.00,68.00 L 261.00,68.00 L 260.00,68.00 L 259.00,68.00 L 258.00,68.00 L 257.00,68.00 L 256.00,68.00 L 255.00,68.00 L 254.00,68.00 L 253.00,68.00 L 252.00,68.00 L 251.20,68.20 Z M 268.40,81.60 L 267.60,81.40 L 266.80,81.20 L 266.00,81.00 L 265.20,80.80 L 264.40,80.60 L 263.60,80.40 L 262.80,80.20 L 262.00,80.00 L 261.00,80.00 L 260.00,80.00 L 259.20,80.20 L 258.40,80.40 L 257.60,80.60 L 256.80,80.80 L 256.00,81.00 L 255.20,81.20 L 254.40,81.40 L 253.80,81.80 L 253.20,82.20 L 252.60,82.60 L 252.00,83.00 L 251.40,83.40 L 250.80,83.80 L 250.20,84.20 L 249.80,84.80 L 249.20,85.20 L 248.80,85.80 L 248.20,86.20 L 247.80,86.80 L 247.40,87.40 L 247.00,88.00 L 246.60,88.60 L 246.40,89.40 L 246.00,90.00 L 245.60,90.60 L 245.40,91.40 L 245.20,92.20 L 245.00,93.00 L 244.80,93.80 L 244.60,94.60 L 244.40,95.40 L 244.20,96.20 L 244.00,97.00 L 244.00,98.00 L 244.20,98.80 L 244.40,99.60 L 244.60,100.40 L 244.80,101.20 L 245.00,102.00 L 245.00,103.00 L 245.20,103.80 L 245.40,104.60 L 245.60,105.40 L 246.00,106.00 L 246.40,106.60 L 246.60,107.40 L 247.00,108.00 L 247.40,108.60 L 247.80,109.20 L 248.20,109.80 L 248.80,110.20 L 249.20,110.80 L 249.80,111.20 L 250.40,111.60 L 251.00,112.00 L 251.60,112.40 L 252.20,112.80 L 252.80,113.20 L 253.40,113.60 L 254.20,113.80 L 254.80,114.20 L 255.60,114.40 L 256.40,114.60 L 257.20,114.80 L 258.00,115.00 L 259.00,115.00 L 260.00,115.00 L 261.00,115.00 L 262.00,115.00 L 263.00,115.00 L 264.00,115.00 L 265.00,115.00 L 265.80,114.80 L 266.60,114.60 L 267.40,114.40 L 268.00,114.00 L 268.60,113.60 L 269.40,113.40 L 270.00,113.00 L 270.60,112.60 L 271.20,112.20 L 271.80,111.80 L 272.20,111.20 L 272.80,110.80 L 273.20,110.20 L 273.80,109.80 L 274.20,109.20 L 274.80,108.80 L 275.20,108.20 L 275.60,107.60 L 276.00,107.00 L 276.40,106.40 L 276.60,105.60 L 276.80,104.80 L 277.20,104.20 L 277.40,103.40 L 277.60,102.60 L 277.80,101.80 L 278.00,101.00 L 278.00,100.00 L 278.00,99.00 L 278.00,98.00 L 278.00,97.00 L 278.00,96.00 L 278.00,95.00 L 278.00,94.00 L 277.80,93.20 L 277.60,92.40 L 277.40,91.60 L 277.20,90.80 L 276.80,90.20 L 276.60,89.40 L 276.20,88.80 L 275.80,88.20 L 275.40,87.60 L 275.00,87.00 L 274.60,86.40 L 274.20,85.80 L 273.80,85.20 L 273.20,84.80 L 272.80,84.20 L 272.20,83.80 L 271.60,83.40 L 271.00,83.00 L 270.40,82.60 L 269.60,82.40 L 269.00,82.00 Z" />
    <path d="M 340.00,68.00 L 341.00,68.00 L 342.00,68.00 L 343.00,68.00 L 344.00,68.00 L 345.00,68.00 L 346.00,68.00 L 347.00,68.00 L 347.80,68.20 L 348.60,68.40 L 349.40,68.60 L 350.20,68.80 L 350.80,69.20 L 351.60,69.40 L 352.40,69.60 L 353.20,69.80 L 353.80,70.20 L 354.60,70.40 L 355.40,70.60 L 356.00,71.00 L 356.60,71.40 L 357.20,71.80 L 357.80,72.20 L 358.20,72.80 L 358.80,73.20 L 359.40,73.60 L 360.00,74.00 L 360.60,74.40 L 361.20,74.80 L 361.80,75.20 L 362.20,75.80 L 362.80,76.20 L 363.20,76.80 L 363.60,77.40 L 364.00,78.00 L 364.40,78.60 L 364.80,79.20 L 365.20,79.80 L 365.60,80.40 L 366.00,81.00 L 366.40,81.60 L 366.60,82.40 L 367.00,83.00 L 367.40,83.60 L 367.60,84.40 L 368.00,85.00 L 368.40,85.60 L 368.60,86.40 L 368.80,87.20 L 369.00,88.00 L 369.20,88.80 L 369.40,89.60 L 369.60,90.40 L 369.80,91.20 L 370.00,92.00 L 370.00,93.00 L 370.00,94.00 L 370.00,95.00 L 370.00,96.00 L 370.00,97.00 L 370.00,98.00 L 370.00,99.00 L 370.00,100.00 L 370.00,101.00 L 370.00,102.00 L 370.00,103.00 L 370.00,104.00 L 369.80,104.80 L 369.60,105.60 L 369.40,106.40 L 369.20,107.20 L 368.80,107.80 L 368.60,108.60 L 368.40,109.40 L 368.20,110.20 L 367.80,110.80 L 367.60,111.60 L 367.40,112.40 L 367.00,113.00 L 366.60,113.60 L 366.20,114.20 L 365.80,114.80 L 365.40,115.40 L 365.00,116.00 L 364.60,116.60 L 364.20,117.20 L 363.80,117.80 L 363.20,118.20 L 362.80,118.80 L 362.20,119.20 L 361.80,119.80 L 361.20,120.20 L 360.80,120.80 L 360.20,121.20 L 359.80,121.80 L 359.20,122.20 L 358.80,122.80 L 358.20,123.20 L 357.60,123.60 L 357.00,124.00 L 356.40,124.40 L 355.60,124.60 L 355.00,125.00 L 354.40,125.40 L 353.60,125.60 L 352.80,125.80 L 352.20,126.20 L 351.40,126.40 L 350.60,126.60 L 349.80,126.80 L 349.20,127.20 L 348.40,127.40 L 347.60,127.60 L 346.80,127.80 L 346.00,128.00 L 345.00,128.00 L 344.00,128.00 L 343.00,128.00 L 342.00,128.00 L 341.00,128.00 L 340.00,128.00 L 339.00,128.00 L 338.00,128.00 L 337.00,128.00 L 336.20,127.80 L 335.40,127.60 L 334.60,127.40 L 333.80,127.20 L 333.20,126.80 L 332.40,126.60 L 331.60,126.40 L 331.00,126.00 L 330.40,125.60 L 329.60,125.40 L 329.00,125.00 L 328.40,124.60 L 327.60,124.40 L 327.00,124.00 L 326.40,123.60 L 325.80,123.20 L 325.20,122.80 L 324.80,122.20 L 324.20,121.80 L 323.80,121.20 L 323.20,120.80 L 322.60,120.40 L 322.00,120.40 L 321.60,120.60 L 321.20,121.20 L 321.00,122.00 L 321.00,123.00 L 321.00,124.00 L 321.00,125.00 L 320.80,125.80 L 320.40,126.40 L 319.80,126.80 L 319.00,127.00 L 318.00,127.00 L 317.00,127.00 L 316.00,127.00 L 315.00,127.00 L 314.00,127.00 L 313.00,127.00 L 312.00,127.00 L 311.00,127.00 L 310.00,127.00 L 309.00,127.00 L 308.00,127.00 L 307.20,126.80 L 306.40,126.60 L 305.80,126.20 L 305.40,125.60 L 305.20,124.80 L 305.00,124.00 L 305.00,123.00 L 305.00,122.00 L 305.00,121.00 L 305.00,120.00 L 305.00,119.00 L 305.00,118.00 L 305.00,117.00 L 305.00,116.00 L 305.00,115.00 L 305.00,114.00 L 305.00,113.00 L 305.00,112.00 L 305.00,111.00 L 305.00,110.00 L 305.00,109.00 L 305.00,108.00 L 305.00,107.00 L 305.00,106.00 L 305.00,105.00 L 305.00,104.00 L 305.00,103.00 L 305.00,102.00 L 305.00,101.00 L 305.00,100.00 L 305.00,99.00 L 305.00,98.00 L 305.00,97.00 L 305.00,96.00 L 305.00,95.00 L 305.00,94.00 L 305.00,93.00 L 305.00,92.00 L 305.00,91.00 L 305.00,90.00 L 305.00,89.00 L 305.00,88.00 L 305.00,87.00 L 305.00,86.00 L 305.00,85.00 L 305.00,84.00 L 305.00,83.00 L 305.00,82.00 L 305.00,81.00 L 305.00,80.00 L 305.00,79.00 L 305.00,78.00 L 305.00,77.00 L 305.00,76.00 L 305.00,75.00 L 305.00,74.00 L 305.00,73.00 L 305.00,72.00 L 305.00,71.00 L 305.00,70.00 L 305.00,69.00 L 305.00,68.00 L 305.00,67.00 L 305.00,66.00 L 305.00,65.00 L 305.00,64.00 L 305.00,63.00 L 305.00,62.00 L 305.00,61.00 L 305.00,60.00 L 305.00,59.00 L 305.00,58.00 L 305.00,57.00 L 305.00,56.00 L 305.00,55.00 L 305.00,54.00 L 305.00,53.00 L 305.00,52.00 L 305.00,51.00 L 305.00,50.00 L 305.00,49.00 L 305.00,48.00 L 305.00,47.00 L 305.00,46.00 L 305.00,45.00 L 305.00,44.00 L 305.00,43.00 L 305.00,42.00 L 305.00,41.00 L 305.00,40.00 L 305.20,39.20 L 305.60,38.60 L 306.20,38.20 L 307.00,38.00 L 308.00,38.00 L 309.00,38.00 L 310.00,38.00 L 311.00,38.00 L 312.00,38.00 L 313.00,38.00 L 314.00,38.00 L 315.00,38.00 L 316.00,38.00 L 317.00,38.00 L 318.00,38.00 L 319.00,38.00 L 319.80,38.20 L 320.40,38.60 L 320.80,39.20 L 321.00,40.00 L 321.00,41.00 L 321.00,42.00 L 321.00,43.00 L 321.00,44.00 L 321.00,45.00 L 321.00,46.00 L 321.00,47.00 L 321.00,48.00 L 321.00,49.00 L 321.00,50.00 L 321.00,51.00 L 321.00,52.00 L 321.00,53.00 L 321.00,54.00 L 321.00,55.00 L 321.00,56.00 L 321.00,57.00 L 321.00,58.00 L 321.00,59.00 L 321.00,60.00 L 321.00,61.00 L 321.00,62.00 L 321.00,63.00 L 321.00,64.00 L 321.00,65.00 L 321.00,66.00 L 321.00,67.00 L 321.00,68.00 L 321.00,69.00 L 321.00,70.00 L 321.00,71.00 L 321.00,72.00 L 321.00,73.00 L 321.00,74.00 L 321.20,74.80 L 321.60,75.40 L 322.00,75.60 L 322.60,75.60 L 323.20,75.20 L 323.80,74.80 L 324.20,74.20 L 324.80,73.80 L 325.20,73.20 L 325.80,72.80 L 326.40,72.40 L 327.00,72.00 L 327.60,71.60 L 328.20,71.20 L 328.80,70.80 L 329.40,70.40 L 330.20,70.20 L 330.80,69.80 L 331.60,69.60 L 332.40,69.40 L 333.00,69.00 L 333.60,68.60 L 334.40,68.40 L 335.20,68.20 L 336.00,68.00 L 337.00,68.00 L 338.00,68.00 L 339.00,68.00 Z M 352.20,87.80 L 351.80,87.20 L 351.40,86.60 L 351.00,86.00 L 350.60,85.40 L 350.20,84.80 L 349.60,84.40 L 349.00,84.00 L 348.40,83.60 L 347.80,83.20 L 347.20,82.80 L 346.60,82.40 L 346.00,82.00 L 345.40,81.60 L 344.60,81.40 L 343.80,81.20 L 343.00,81.00 L 342.00,81.00 L 341.20,80.80 L 340.40,80.60 L 339.60,80.40 L 338.80,80.20 L 338.00,80.00 L 337.20,80.20 L 336.40,80.40 L 335.60,80.60 L 334.80,80.80 L 334.00,81.00 L 333.00,81.00 L 332.20,81.20 L 331.40,81.40 L 330.60,81.60 L 330.00,82.00 L 329.40,82.40 L 328.80,82.80 L 328.20,83.20 L 327.60,83.60 L 327.00,84.00 L 326.40,84.40 L 325.80,84.80 L 325.40,85.40 L 325.00,86.00 L 324.60,86.60 L 324.20,87.20 L 323.80,87.80 L 323.40,88.40 L 323.00,89.00 L 322.60,89.60 L 322.40,90.40 L 322.20,91.20 L 321.80,91.80 L 321.60,92.60 L 321.40,93.40 L 321.20,94.20 L 321.00,95.00 L 321.00,96.00 L 321.00,97.00 L 321.00,98.00 L 321.00,99.00 L 321.00,100.00 L 321.00,101.00 L 321.20,101.80 L 321.40,102.60 L 321.60,103.40 L 321.80,104.20 L 322.20,104.80 L 322.40,105.60 L 322.60,106.40 L 323.00,107.00 L 323.40,107.60 L 323.80,108.20 L 324.20,108.80 L 324.80,109.20 L 325.20,109.80 L 325.80,110.20 L 326.20,110.80 L 326.80,111.20 L 327.20,111.80 L 327.80,112.20 L 328.40,112.60 L 329.00,113.00 L 329.60,113.40 L 330.40,113.60 L 331.00,114.00 L 331.60,114.40 L 332.40,114.60 L 333.20,114.80 L 334.00,115.00 L 335.00,115.00 L 336.00,115.00 L 337.00,115.00 L 338.00,115.00 L 339.00,115.00 L 340.00,115.00 L 341.00,115.00 L 342.00,115.00 L 342.80,114.80 L 343.60,114.60 L 344.40,114.40 L 345.00,114.00 L 345.60,113.60 L 346.40,113.40 L 347.00,113.00 L 347.60,112.60 L 348.20,112.20 L 348.80,111.80 L 349.20,111.20 L 349.80,110.80 L 350.20,110.20 L 350.80,109.80 L 351.20,109.20 L 351.60,108.60 L 352.00,108.00 L 352.40,107.40 L 352.60,106.60 L 353.00,106.00 L 353.40,105.40 L 353.60,104.60 L 353.80,103.80 L 354.00,103.00 L 354.20,102.20 L 354.40,101.40 L 354.60,100.60 L 354.80,99.80 L 355.00,99.00 L 355.00,98.00 L 355.00,97.00 L 355.00,96.00 L 354.80,95.20 L 354.60,94.40 L 354.40,93.60 L 354.20,92.80 L 353.80,92.20 L 353.60,91.40 L 353.40,90.60 L 353.20,89.80 L 352.80,89.20 L 352.60,88.40 Z" />
    <path d="M 379.60,42.60 L 380.00,42.00 L 380.40,41.40 L 380.80,40.80 L 381.20,40.20 L 381.80,39.80 L 382.40,39.40 L 383.00,39.00 L 383.60,38.60 L 384.40,38.40 L 385.00,38.00 L 385.60,37.60 L 386.40,37.40 L 387.20,37.20 L 388.00,37.00 L 389.00,37.00 L 389.80,37.20 L 390.60,37.40 L 391.40,37.60 L 392.00,38.00 L 392.60,38.40 L 393.40,38.60 L 394.00,39.00 L 394.40,39.60 L 395.00,40.00 L 395.40,40.60 L 395.80,41.20 L 396.20,41.80 L 396.60,42.40 L 396.80,43.20 L 397.20,43.80 L 397.40,44.60 L 397.60,45.40 L 397.60,46.00 L 397.60,46.60 L 397.40,47.40 L 397.20,48.20 L 396.80,48.80 L 396.60,49.60 L 396.40,50.40 L 396.00,51.00 L 395.60,51.60 L 395.20,52.20 L 394.60,52.60 L 394.00,53.00 L 393.40,53.40 L 392.60,53.60 L 392.00,54.00 L 391.40,54.40 L 390.60,54.60 L 389.80,54.80 L 389.00,55.00 L 388.00,55.00 L 387.00,55.00 L 386.20,54.80 L 385.40,54.60 L 384.60,54.40 L 384.00,54.00 L 383.40,53.60 L 382.80,53.20 L 382.20,52.80 L 381.80,52.20 L 381.20,51.80 L 380.80,51.20 L 380.40,50.60 L 380.00,50.00 L 379.60,49.40 L 379.40,48.60 L 379.20,47.80 L 379.00,47.00 L 379.00,46.00 L 379.00,45.00 L 379.20,44.20 L 379.40,43.40 Z" />
    <path d="M 394.00,69.00 L 394.80,69.20 L 395.40,69.60 L 395.80,70.20 L 396.00,71.00 L 396.00,72.00 L 396.00,73.00 L 396.00,74.00 L 396.00,75.00 L 396.00,76.00 L 396.00,77.00 L 396.00,78.00 L 396.00,79.00 L 396.00,80.00 L 396.00,81.00 L 396.00,82.00 L 396.00,83.00 L 396.00,84.00 L 396.00,85.00 L 396.00,86.00 L 396.00,87.00 L 396.00,88.00 L 396.00,89.00 L 396.00,90.00 L 396.00,91.00 L 396.00,92.00 L 396.00,93.00 L 396.00,94.00 L 396.00,95.00 L 396.00,96.00 L 396.00,97.00 L 396.00,98.00 L 396.00,99.00 L 396.00,100.00 L 396.00,101.00 L 396.00,102.00 L 396.00,103.00 L 396.00,104.00 L 396.00,105.00 L 396.00,106.00 L 396.00,107.00 L 396.00,108.00 L 396.00,109.00 L 396.00,110.00 L 396.00,111.00 L 396.00,112.00 L 396.00,113.00 L 396.00,114.00 L 396.00,115.00 L 396.00,116.00 L 396.00,117.00 L 396.00,118.00 L 396.00,119.00 L 396.00,120.00 L 396.00,121.00 L 396.00,122.00 L 396.00,123.00 L 396.00,124.00 L 396.00,125.00 L 395.80,125.80 L 395.40,126.40 L 394.80,126.80 L 394.00,127.00 L 393.00,127.00 L 392.00,127.00 L 391.00,127.00 L 390.00,127.00 L 389.00,127.00 L 388.00,127.00 L 387.00,127.00 L 386.00,127.00 L 385.00,127.00 L 384.00,127.00 L 383.00,127.00 L 382.20,126.80 L 381.40,126.60 L 380.80,126.20 L 380.40,125.60 L 380.20,124.80 L 380.00,124.00 L 380.00,123.00 L 380.00,122.00 L 380.00,121.00 L 380.00,120.00 L 380.00,119.00 L 380.00,118.00 L 380.00,117.00 L 380.00,116.00 L 380.00,115.00 L 380.00,114.00 L 380.00,113.00 L 380.00,112.00 L 380.00,111.00 L 380.00,110.00 L 380.00,109.00 L 380.00,108.00 L 380.00,107.00 L 380.00,106.00 L 380.00,105.00 L 380.00,104.00 L 380.00,103.00 L 380.00,102.00 L 380.00,101.00 L 380.00,100.00 L 380.00,99.00 L 380.00,98.00 L 380.00,97.00 L 380.00,96.00 L 380.00,95.00 L 380.00,94.00 L 380.00,93.00 L 380.00,92.00 L 380.00,91.00 L 380.00,90.00 L 380.00,89.00 L 380.00,88.00 L 380.00,87.00 L 380.00,86.00 L 380.00,85.00 L 380.00,84.00 L 380.00,83.00 L 380.00,82.00 L 380.00,81.00 L 380.00,80.00 L 380.00,79.00 L 380.00,78.00 L 380.00,77.00 L 380.00,76.00 L 380.00,75.00 L 380.00,74.00 L 380.00,73.00 L 380.00,72.00 L 380.00,71.00 L 380.20,70.20 L 380.60,69.60 L 381.20,69.20 L 382.00,69.00 L 383.00,69.00 L 384.00,69.00 L 385.00,69.00 L 386.00,69.00 L 387.00,69.00 L 388.00,69.00 L 389.00,69.00 L 390.00,69.00 L 391.00,69.00 L 392.00,69.00 L 393.00,69.00 Z" />
    <path d="M 429.00,91.00 L 429.00,90.00 L 429.00,89.00 L 429.00,88.00 L 429.00,87.00 L 429.00,86.00 L 429.00,85.00 L 429.00,84.00 L 429.00,83.00 L 429.00,82.00 L 429.20,81.20 L 429.60,80.60 L 430.20,80.20 L 431.00,80.00 L 432.00,80.00 L 433.00,80.00 L 434.00,80.00 L 435.00,80.00 L 436.00,80.00 L 437.00,80.00 L 438.00,80.00 L 439.00,80.00 L 440.00,80.00 L 441.00,80.00 L 442.00,80.00 L 443.00,80.00 L 444.00,80.00 L 444.80,79.80 L 445.40,79.40 L 445.80,78.80 L 446.00,78.00 L 446.00,77.00 L 446.00,76.00 L 446.00,75.00 L 446.00,74.00 L 446.00,73.00 L 446.00,72.00 L 445.80,71.20 L 445.60,70.40 L 445.20,69.80 L 444.60,69.40 L 443.80,69.20 L 443.00,69.00 L 442.00,69.00 L 441.00,69.00 L 440.00,69.00 L 439.00,69.00 L 438.00,69.00 L 437.00,69.00 L 436.00,69.00 L 435.00,69.00 L 434.00,69.00 L 433.00,69.00 L 432.00,69.00 L 431.00,69.00 L 430.20,68.80 L 429.60,68.40 L 429.20,67.80 L 429.00,67.00 L 429.00,66.00 L 429.00,65.00 L 429.00,64.00 L 429.00,63.00 L 429.00,62.00 L 429.00,61.00 L 429.00,60.00 L 429.00,59.00 L 429.00,58.00 L 429.00,57.00 L 429.00,56.00 L 429.00,55.00 L 429.00,54.00 L 429.00,53.00 L 429.00,52.00 L 429.00,51.00 L 428.80,50.20 L 428.40,49.60 L 427.80,49.20 L 427.00,49.00 L 426.00,49.00 L 425.00,49.00 L 424.00,49.00 L 423.00,49.00 L 422.00,49.00 L 421.00,49.00 L 420.00,49.00 L 419.00,49.00 L 418.00,49.00 L 417.00,49.00 L 416.00,49.00 L 415.20,49.20 L 414.40,49.40 L 413.80,49.80 L 413.40,50.40 L 413.20,51.20 L 413.00,52.00 L 413.00,53.00 L 413.00,54.00 L 413.00,55.00 L 413.00,56.00 L 413.00,57.00 L 413.00,58.00 L 413.00,59.00 L 413.00,60.00 L 413.00,61.00 L 413.00,62.00 L 413.00,63.00 L 413.00,64.00 L 413.00,65.00 L 413.00,66.00 L 413.00,67.00 L 412.80,67.80 L 412.40,68.40 L 411.80,68.80 L 411.00,69.00 L 410.00,69.00 L 409.00,69.00 L 408.00,69.00 L 407.00,69.00 L 406.00,69.00 L 405.20,69.20 L 404.60,69.60 L 404.20,70.20 L 404.00,71.00 L 404.00,72.00 L 404.00,73.00 L 404.00,74.00 L 404.00,75.00 L 404.00,76.00 L 404.00,77.00 L 404.00,78.00 L 404.20,78.80 L 404.60,79.40 L 405.20,79.80 L 406.00,80.00 L 407.00,80.00 L 408.00,80.00 L 409.00,80.00 L 410.00,80.00 L 411.00,80.00 L 411.80,80.20 L 412.40,80.60 L 412.80,81.20 L 413.00,82.00 L 413.00,83.00 L 413.00,84.00 L 413.00,85.00 L 413.00,86.00 L 413.00,87.00 L 413.00,88.00 L 413.00,89.00 L 413.00,90.00 L 413.00,91.00 L 413.20,91.80 L 413.40,92.60 L 413.60,93.40 L 413.80,94.20 L 414.00,95.00 L 414.00,96.00 L 414.00,97.00 L 414.00,98.00 L 414.00,99.00 L 414.00,100.00 L 414.00,101.00 L 414.00,102.00 L 414.00,103.00 L 414.00,104.00 L 414.00,105.00 L 414.00,106.00 L 414.00,107.00 L 414.00,108.00 L 413.80,108.80 L 413.60,109.60 L 413.60,110.20 L 413.60,110.80 L 413.60,111.40 L 413.80,112.20 L 414.00,113.00 L 414.00,114.00 L 414.00,115.00 L 414.20,115.80 L 414.40,116.60 L 414.60,117.40 L 414.80,118.20 L 415.20,118.80 L 415.40,119.60 L 415.80,120.20 L 416.20,120.80 L 416.60,121.40 L 417.00,122.00 L 417.40,122.60 L 417.80,123.20 L 418.20,123.80 L 418.80,124.20 L 419.40,124.60 L 420.00,125.00 L 420.60,125.40 L 421.40,125.60 L 422.00,126.00 L 422.60,126.40 L 423.40,126.60 L 424.20,126.80 L 425.00,127.00 L 425.80,127.20 L 426.60,127.40 L 427.40,127.60 L 428.20,127.80 L 429.00,128.00 L 430.00,128.00 L 431.00,128.00 L 432.00,128.00 L 433.00,128.00 L 434.00,128.00 L 435.00,128.00 L 436.00,128.00 L 437.00,128.00 L 438.00,128.00 L 438.80,127.80 L 439.60,127.60 L 440.40,127.40 L 441.20,127.20 L 442.00,127.00 L 442.80,126.80 L 443.60,126.60 L 444.40,126.40 L 445.00,126.00 L 445.40,125.40 L 445.80,124.80 L 446.00,124.00 L 446.00,123.00 L 446.00,122.00 L 446.00,121.00 L 446.00,120.00 L 446.00,119.00 L 446.00,118.00 L 446.00,117.00 L 445.80,116.20 L 445.60,115.40 L 445.20,114.80 L 444.80,114.60 L 444.20,114.60 L 443.60,114.60 L 442.80,114.80 L 442.00,115.00 L 441.00,115.00 L 440.20,115.20 L 439.40,115.40 L 438.60,115.60 L 438.00,115.60 L 437.40,115.60 L 436.60,115.40 L 435.80,115.20 L 435.00,115.00 L 434.00,115.00 L 433.20,114.80 L 432.40,114.60 L 431.80,114.20 L 431.20,113.80 L 430.80,113.20 L 430.40,112.60 L 430.00,112.00 L 429.60,111.40 L 429.40,110.60 L 429.20,109.80 L 429.00,109.00 L 429.00,108.00 L 429.00,107.00 L 429.00,106.00 L 429.00,105.00 L 429.00,104.00 L 429.00,103.00 L 429.00,102.00 L 429.00,101.00 L 429.00,100.00 L 429.00,99.00 L 429.00,98.00 L 429.00,97.00 L 429.00,96.00 L 429.00,95.00 L 429.00,94.00 L 429.00,93.00 L 429.00,92.00 Z" />
    <path d="M 472.40,125.60 L 473.20,125.80 L 473.80,126.20 L 474.60,126.40 L 475.40,126.60 L 476.20,126.80 L 477.00,127.00 L 478.00,127.00 L 478.80,127.20 L 479.60,127.40 L 480.40,127.60 L 481.20,127.80 L 482.00,128.00 L 483.00,128.00 L 484.00,128.00 L 485.00,128.00 L 486.00,128.00 L 487.00,128.00 L 488.00,128.00 L 489.00,128.00 L 490.00,128.00 L 490.80,127.80 L 491.60,127.60 L 492.40,127.40 L 493.20,127.20 L 494.00,127.00 L 495.00,127.00 L 495.80,126.80 L 496.60,126.60 L 497.40,126.40 L 498.20,126.20 L 499.00,126.00 L 499.80,125.80 L 500.60,125.60 L 501.40,125.40 L 502.00,125.00 L 502.60,124.60 L 503.40,124.40 L 504.00,124.00 L 504.60,123.60 L 505.40,123.40 L 506.00,123.00 L 506.60,122.60 L 507.40,122.40 L 508.00,122.00 L 508.60,121.60 L 509.20,121.20 L 509.60,120.60 L 509.80,119.80 L 509.80,119.20 L 509.60,118.40 L 509.40,117.60 L 509.20,116.80 L 508.80,116.20 L 508.60,115.40 L 508.40,114.60 L 508.20,113.80 L 508.00,113.00 L 508.00,112.00 L 507.80,111.40 L 507.40,111.00 L 507.00,111.00 L 506.40,111.20 L 505.60,111.60 L 505.00,112.00 L 504.40,112.40 L 503.60,112.60 L 503.00,113.00 L 502.40,113.40 L 501.60,113.60 L 500.80,113.80 L 500.20,114.20 L 499.40,114.40 L 498.60,114.60 L 497.80,114.80 L 497.00,115.00 L 496.20,115.20 L 495.40,115.40 L 494.60,115.60 L 493.80,115.80 L 493.00,116.00 L 492.00,116.00 L 491.00,116.00 L 490.00,116.00 L 489.00,116.00 L 488.00,116.00 L 487.00,116.00 L 486.00,116.00 L 485.00,116.00 L 484.00,116.00 L 483.00,116.00 L 482.00,116.00 L 481.20,115.80 L 480.40,115.60 L 479.60,115.40 L 478.80,115.20 L 478.20,114.80 L 477.40,114.60 L 476.60,114.40 L 476.00,114.00 L 475.40,113.60 L 474.60,113.40 L 474.00,113.00 L 473.40,112.60 L 472.80,112.20 L 472.20,111.80 L 471.80,111.20 L 471.20,110.80 L 470.80,110.20 L 470.40,109.60 L 470.00,109.00 L 469.60,108.40 L 469.40,107.60 L 469.00,107.00 L 468.60,106.40 L 468.40,105.60 L 468.20,104.80 L 468.00,104.00 L 468.20,103.20 L 468.60,102.60 L 469.20,102.20 L 470.00,102.00 L 471.00,102.00 L 472.00,102.00 L 473.00,102.00 L 474.00,102.00 L 475.00,102.00 L 476.00,102.00 L 477.00,102.00 L 478.00,102.00 L 479.00,102.00 L 480.00,102.00 L 481.00,102.00 L 482.00,102.00 L 483.00,102.00 L 484.00,102.00 L 485.00,102.00 L 486.00,102.00 L 487.00,102.00 L 488.00,102.00 L 489.00,102.00 L 490.00,102.00 L 491.00,102.00 L 492.00,102.00 L 493.00,102.00 L 494.00,102.00 L 495.00,102.00 L 496.00,102.00 L 497.00,102.00 L 498.00,102.00 L 499.00,102.00 L 500.00,102.00 L 501.00,102.00 L 502.00,102.00 L 503.00,102.00 L 503.80,102.20 L 504.60,102.40 L 505.40,102.60 L 506.20,102.80 L 507.00,103.00 L 507.80,102.80 L 508.60,102.60 L 509.40,102.40 L 510.20,102.20 L 510.80,101.80 L 511.40,101.40 L 511.80,100.80 L 512.00,100.00 L 512.00,99.00 L 512.00,98.00 L 512.00,97.00 L 512.00,96.00 L 512.00,95.00 L 512.00,94.00 L 512.00,93.00 L 512.00,92.00 L 512.00,91.00 L 511.80,90.20 L 511.60,89.40 L 511.40,88.60 L 511.20,87.80 L 510.80,87.20 L 510.60,86.40 L 510.40,85.60 L 510.00,85.00 L 509.60,84.40 L 509.40,83.60 L 509.00,83.00 L 508.60,82.40 L 508.40,81.60 L 508.00,81.00 L 507.60,80.40 L 507.20,79.80 L 506.80,79.20 L 506.40,78.60 L 506.00,78.00 L 505.60,77.40 L 505.20,76.80 L 504.80,76.20 L 504.20,75.80 L 503.80,75.20 L 503.20,74.80 L 502.80,74.20 L 502.20,73.80 L 501.60,73.40 L 501.00,73.00 L 500.40,72.60 L 499.80,72.20 L 499.20,71.80 L 498.60,71.40 L 498.00,71.00 L 497.40,70.60 L 496.60,70.40 L 496.00,70.00 L 495.40,69.60 L 494.60,69.40 L 493.80,69.20 L 493.00,69.00 L 492.20,68.80 L 491.40,68.60 L 490.60,68.40 L 489.80,68.20 L 489.00,68.00 L 488.00,68.00 L 487.00,68.00 L 486.00,68.00 L 485.00,68.00 L 484.00,68.00 L 483.00,68.00 L 482.00,68.00 L 481.00,68.00 L 480.00,68.00 L 479.00,68.00 L 478.00,68.00 L 477.00,68.00 L 476.20,68.20 L 475.40,68.40 L 474.60,68.60 L 473.80,68.80 L 473.20,69.20 L 472.40,69.40 L 471.60,69.60 L 471.00,70.00 L 470.40,70.40 L 469.60,70.60 L 469.00,71.00 L 468.40,71.40 L 467.60,71.60 L 467.00,72.00 L 466.40,72.40 L 465.80,72.80 L 465.20,73.20 L 464.60,73.60 L 464.00,74.00 L 463.40,74.40 L 462.80,74.80 L 462.20,75.20 L 461.80,75.80 L 461.20,76.20 L 460.80,76.80 L 460.20,77.20 L 459.80,77.80 L 459.20,78.20 L 458.80,78.80 L 458.20,79.20 L 457.80,79.80 L 457.40,80.40 L 457.00,81.00 L 456.60,81.60 L 456.40,82.40 L 456.00,83.00 L 455.60,83.60 L 455.40,84.40 L 455.00,85.00 L 454.60,85.60 L 454.40,86.40 L 454.20,87.20 L 453.80,87.80 L 453.60,88.60 L 453.40,89.40 L 453.20,90.20 L 453.00,91.00 L 453.00,92.00 L 452.80,92.80 L 452.60,93.60 L 452.40,94.40 L 452.20,95.20 L 452.00,96.00 L 452.00,97.00 L 452.00,98.00 L 452.00,99.00 L 452.20,99.80 L 452.40,100.60 L 452.60,101.40 L 452.80,102.20 L 453.00,103.00 L 453.00,104.00 L 453.20,104.80 L 453.40,105.60 L 453.60,106.40 L 453.80,107.20 L 454.20,107.80 L 454.40,108.60 L 454.60,109.40 L 455.00,110.00 L 455.40,110.60 L 455.60,111.40 L 456.00,112.00 L 456.40,112.60 L 456.60,113.40 L 457.00,114.00 L 457.40,114.60 L 457.80,115.20 L 458.20,115.80 L 458.80,116.20 L 459.20,116.80 L 459.80,117.20 L 460.20,117.80 L 460.60,118.40 L 461.00,119.00 L 461.60,119.40 L 462.00,120.00 L 462.60,120.40 L 463.20,120.80 L 463.80,121.20 L 464.40,121.60 L 465.00,122.00 L 465.60,122.40 L 466.20,122.80 L 466.80,123.20 L 467.40,123.60 L 468.00,124.00 L 468.60,124.40 L 469.40,124.60 L 470.20,124.80 L 470.80,125.20 L 471.60,125.40 Z M 478.00,93.00 L 477.00,93.00 L 476.00,93.00 L 475.00,93.00 L 474.00,93.00 L 473.00,93.00 L 472.00,93.00 L 471.00,93.00 L 470.00,93.00 L 469.20,92.80 L 468.60,92.40 L 468.20,91.80 L 468.00,91.00 L 468.00,90.00 L 468.20,89.20 L 468.40,88.40 L 468.60,87.60 L 468.80,86.80 L 469.20,86.20 L 469.40,85.40 L 469.80,84.80 L 470.20,84.20 L 470.80,83.80 L 471.20,83.20 L 471.80,82.80 L 472.20,82.20 L 472.80,81.80 L 473.40,81.40 L 474.00,81.00 L 474.60,80.60 L 475.40,80.40 L 476.00,80.00 L 476.60,79.60 L 477.40,79.40 L 478.20,79.20 L 479.00,79.00 L 480.00,79.00 L 481.00,79.00 L 482.00,79.00 L 483.00,79.00 L 484.00,79.00 L 485.00,79.00 L 486.00,79.00 L 487.00,79.00 L 487.80,79.20 L 488.60,79.40 L 489.40,79.60 L 490.00,80.00 L 490.60,80.40 L 491.40,80.60 L 492.00,81.00 L 492.60,81.40 L 493.20,81.80 L 493.80,82.20 L 494.20,82.80 L 494.60,83.40 L 495.00,84.00 L 495.40,84.60 L 495.80,85.20 L 496.20,85.80 L 496.60,86.40 L 496.80,87.20 L 497.00,88.00 L 497.20,88.80 L 497.40,89.60 L 497.60,90.40 L 497.60,91.00 L 497.60,91.60 L 497.20,92.20 L 496.60,92.60 L 495.80,92.80 L 495.00,93.00 L 494.00,93.00 L 493.00,93.00 L 492.00,93.00 L 491.00,93.00 L 490.00,93.00 L 489.00,93.00 L 488.00,93.00 L 487.00,93.00 L 486.00,93.00 L 485.00,93.00 L 484.00,93.00 L 483.00,93.00 L 482.00,93.00 L 481.00,93.00 L 480.00,93.00 L 479.00,93.00 Z" />
  </g>
</svg>
